<?xml version="1.0" encoding="UTF-8" standalone="no"?>
<svg width="537px" height="312px" viewBox="0 0 537 312" version="1.1" xmlns="http://www.w3.org/2000/svg" xmlns:xlink="http://www.w3.org/1999/xlink">
    <!-- Generator: Sketch 39 (31667) - http://www.bohemiancoding.com/sketch -->
    <title>logo</title>
    <desc>Created with Sketch.</desc>
    <defs></defs>
    <g id="Page-1" stroke="none" stroke-width="1" fill="none" fill-rule="evenodd">
        <g id="logo" transform="translate(-1.000000, 0.000000)" fill="#F64747">
            <g id="Group">
                <path d="M255.319,67.97 C253.406,108.133 219.938,140.167 179.775,140.167 C137.7,140.167 102.797,109.089 102.797,67.492 L84.15,67.492 C84.629,117.695 123.357,156.424 173.082,159.292 L173.082,228.62 C166.866,264.479 135.788,291.732 98.494,291.732 C57.375,291.732 23.907,259.698 22.473,219.536 L1.435,219.536 C1.913,272.13 44.944,311.336 97.538,311.336 C134.832,311.336 166.866,290.299 183.122,259.221 C198.9,290.299 231.413,311.336 269.663,311.336 C306.957,311.336 338.991,290.299 355.246,259.221 C371.025,290.299 403.537,311.336 441.787,311.336 C494.859,311.336 537.891,268.305 537.891,215.711 L517.809,215.711 C517.809,257.308 483.864,291.732 441.788,291.732 C400.669,291.732 366.724,259.22 365.767,218.58 L365.767,158.814 C412.146,152.12 448.005,112.435 448.005,64.145 L448.005,64.145 L427.923,64.145 C427.923,105.742 393.976,140.645 351.902,140.645 C310.783,140.645 276.836,108.132 275.881,67.492 L275.881,64.623 L255.799,64.623 L255.319,67.97 L255.319,67.97 Z M269.663,291.732 C228.544,291.732 194.598,259.22 193.641,218.58 L193.641,158.814 C224.719,154.033 251.016,134.908 264.882,107.654 C279.704,137.299 309.825,157.38 345.208,159.292 L345.208,219.536 C343.293,259.698 310.303,291.732 269.663,291.732 L269.663,291.732 Z" id="Shape"></path>
                <path d="M96.103,275.477 C130.05,275.477 157.781,247.746 157.781,213.799 C157.781,179.852 130.05,152.12 96.103,152.12 C62.156,152.12 34.425,179.851 34.425,213.799 C34.903,248.224 62.156,275.477 96.103,275.477 L96.103,275.477 Z M96.103,188.458 C109.969,188.458 121.444,199.933 121.444,213.799 C121.444,227.664 110.447,239.617 96.103,239.617 C81.759,239.617 70.763,228.142 70.763,214.276 C70.763,200.411 82.238,188.458 96.103,188.458 L96.103,188.458 Z" id="Shape"></path>
                <circle id="Oval" cx="96.103" cy="214.276" r="15.3"></circle>
                <path d="M268.228,152.599 C234.281,152.599 206.55,180.33 206.55,214.277 C206.55,248.224 234.281,275.956 268.228,275.956 C302.176,275.956 329.906,248.225 329.906,214.277 C329.906,179.852 302.176,152.599 268.228,152.599 L268.228,152.599 Z M268.228,239.617 C254.363,239.617 242.888,228.142 242.888,214.276 C242.888,200.411 254.363,188.935 268.228,188.935 C282.094,188.935 293.568,200.411 293.568,214.276 C293.568,228.143 282.094,239.617 268.228,239.617 L268.228,239.617 Z" id="Shape"></path>
                <circle id="Oval" cx="268.228" cy="214.276" r="15.3"></circle>
                <path d="M378.197,214.276 C378.197,248.223 405.927,275.955 439.875,275.955 C473.823,275.955 501.553,248.224 501.553,214.276 C501.553,180.33 473.823,152.598 439.875,152.598 C405.927,152.598 378.197,179.852 378.197,214.276 L378.197,214.276 Z M465.693,214.276 C465.693,228.142 454.218,239.617 440.353,239.617 C426.488,239.617 415.011,228.142 415.011,214.276 C415.011,200.411 426.488,188.935 440.353,188.935 C454.219,188.458 465.693,199.933 465.693,214.276 L465.693,214.276 Z" id="Shape"></path>
                <circle id="Oval" cx="439.875" cy="214.276" r="15.3"></circle>
                <path d="M349.988,1.033 C316.041,1.033 288.308,28.764 288.308,62.711 C288.308,96.658 316.04,124.389 349.988,124.389 C383.933,124.389 411.666,96.658 411.666,62.711 C411.666,28.286 383.934,1.033 349.988,1.033 L349.988,1.033 Z M349.988,88.052 C336.121,88.052 324.646,76.577 324.646,62.711 C324.646,48.845 336.121,37.37 349.988,37.37 C363.853,37.37 375.328,48.845 375.328,62.711 C375.328,76.577 363.854,88.052 349.988,88.052 L349.988,88.052 Z" id="Shape"></path>
                <circle id="Oval" cx="349.988" cy="62.233" r="15.3"></circle>
                <path d="M116.663,62.233 C116.663,96.18 144.394,123.911 178.341,123.911 C212.288,123.911 240.019,96.18 240.019,62.233 C240.019,28.286 212.288,0.555 178.341,0.555 C144.394,0.555 116.663,28.286 116.663,62.233 L116.663,62.233 Z M203.681,62.233 C203.681,76.099 192.206,87.573 178.341,87.573 C164.476,87.573 153,76.099 153,62.233 C153,48.367 164.475,36.892 178.341,36.892 C192.207,36.892 203.681,48.367 203.681,62.233 L203.681,62.233 Z" id="Shape"></path>
                <circle id="Oval" cx="177.863" cy="62.233" r="15.3"></circle>
            </g>
        </g>
    </g>
</svg>